# xmcd
#
# Track frame offsets:
#	150
#	16726
#	31743
#
# Disc length: 682 seconds
#
# Revision: 3
# Processed by: cddbd v1.5.1PL0 Copyright (c) Steve Scherf et al.
# Submitted via: EasyCDDAExtractor 5.0.6
#
DISCID=1202a803
DTITLE=The National - Abel
DYEAR=2005
DGENRE=Indie Rock
TTITLE0=Abel
TTITLE1=Driver, Surprise Me
TTITLE2=Keep It Upstairs
EXTD=
EXTT0=
EXTT1=
EXTT2=
PLAYORDER=
